<?xml version="1.0" encoding="utf-8"?>
<!-- Generator: Adobe Illustrator 20.1.0, SVG Export Plug-In . SVG Version: 6.00 Build 0)  -->
<svg version="1.1" id="Layer_1" xmlns="http://www.w3.org/2000/svg" xmlns:xlink="http://www.w3.org/1999/xlink" x="0px" y="0px"
	 viewBox="0 0 273 54" style="enable-background:new 0 0 273 54;" xml:space="preserve">
<style type="text/css">
	.st0{fill:#D40000;}
</style>
<g id="layer2" transform="translate(-389.55868,-68.656167)">
	<g id="flowRoot4290-5-5" transform="translate(-346.27627,1.3393406)">
		<path id="path4254" d="M750.7,80.8c-3.7,0-6.6,1.4-8.7,4.1c-2.1,2.7-3.2,5.9-3.2,9.4c0,3.1,0.9,5.6,2.6,7.6c1.7,2,4,2.9,6.9,2.9
			c2.7,0,4.9-0.8,6.6-2.4c1.8-1.6,3-3.7,3.7-6.2l-0.1,0h-6.4c-0.3,1-0.7,1.7-1.2,2.2c-0.6,0.6-1.3,0.9-2.2,0.9
			c-1.8,0-2.8-1.2-2.8-3.5c0-1.5,0.3-3.4,0.9-6c0.6-2.5,1.8-3.8,3.5-3.8c1,0,1.7,0.3,2.1,1c0.4,0.6,0.6,1.5,0.6,2.6h6.5v0.1l0,0
			c0-2.7-0.9-4.9-2.6-6.5C755.5,81.6,753.4,80.8,750.7,80.8z"/>
		<path id="path4256"  d="M779.5,99l-0.9,5.3h-17l3.9-23.1H782l-0.8,5.1h-9.9l-0.6,3.6h8.3l-0.8,5
			h-8.3l-0.7,4.1H779.5z"/>
		<path id="path4258"  d="M806.5,81.3l-3.9,23.1h-5.1l-4.4-8.9c-1.2-2.4-2-4.3-2.3-5.7
			c0,0.3,0,0.6,0,0.8c0,0.6-0.1,1.5-0.3,2.5l-1.9,11.3h-5.6l3.9-23.1h6.2l2.5,5.3c1.8,3.7,2.9,6.4,3.4,8.2c0-0.5-0.1-0.8-0.1-1
			c0-0.7,0.2-1.9,0.5-3.7l1.5-8.7H806.5z"/>
		<path id="path4260"  d="M821.7,86.6l-3,17.8H812l3-17.8h-4.9l0.9-5.3h16.7l-0.9,5.3H821.7
			L821.7,86.6z"/>
		<path id="path4262"  d="M849.9,81.3l-2.4,14.2c-0.4,2.4-0.9,4.2-1.6,5.4
			c-0.7,1.1-1.8,2.1-3.3,2.8c-1.5,0.7-3.3,1.1-5.4,1.1c-2.7,0-4.8-0.6-6.4-1.7c-1.5-1.2-2.3-2.8-2.3-5c0-0.7,0.1-1.6,0.2-2.5
			l2.4-14.2h7l-2.4,14.2c-0.1,0.8-0.2,1.4-0.2,1.7c0,0.7,0.3,1.3,0.8,1.7c0.6,0.4,1.3,0.6,2.1,0.6c1,0,1.8-0.2,2.3-0.7
			c0.5-0.5,0.9-1.5,1.1-3l2.4-14.4H849.9L849.9,81.3z"/>
		<path id="path4264"  d="M868.7,94.7l5.1,19.5l-7.1,0
			l-4.4-18.6h-2.7l-1.5,8.8h-6.6l3.9-23.1h10.1c2.7,0,4.8,0.6,6.1,1.8c1.3,1.2,2,2.8,2,4.9C873.5,91.3,871.9,93.5,868.7,94.7
			L868.7,94.7z M860.4,90.8h2.6c2.5,0,3.7-0.8,3.7-2.5c0-1.4-1-2.1-3.1-2.1h-2.4L860.4,90.8z"/>
		<path id="path4266" d="M897.8,81.3l-9.5,13.1l-1.7,10h-6.9l1.7-10.3L876,81.3h7.3l2.4,6.4
			c0.2,0.4,0.4,0.9,0.5,1.5l1.1-1.8l4.1-6.1H897.8L897.8,81.3z"/>
		<path id="path4268" d="M936.8,81.3l-3.9,23.1h-6.5l2.1-12.3c0.2-1.3,0.5-2.6,0.8-4
			c0.3-1.1,0.5-2,0.6-2.6c-0.1,0.3-0.3,0.9-0.6,1.6c-0.6,1.5-1.1,2.7-1.5,3.8l-6,13.4h-4.2l-1.6-13.4c-0.1-1.2-0.2-2.4-0.3-3.8
			c0-0.8-0.1-1.4-0.1-1.9c-0.3,3.2-0.7,5.9-1,8.2l-1.8,10.8h-5.2l3.9-23.1h9.3l1.2,10.2c0.1,0.8,0.2,1.4,0.3,1.8
			c0.2-0.5,0.4-1.1,0.7-1.8l4.6-10.2H936.8z"/>
		<path id="path4270"  d="M949.6,104.9c-2.7,0-5.1-0.9-7.1-2.7c-2-1.8-3-4.4-3-7.7
			c0-3.9,1.1-7.1,3.4-9.8c2.2-2.7,5.2-4.1,8.8-4.1c2.9,0,5.3,0.9,7.1,2.8c1.9,1.9,2.8,4.3,2.8,7.4c0,3.9-1.1,7.2-3.3,9.9
			C956,103.6,953.1,104.9,949.6,104.9z M949.6,99.6c1.2,0,2.1-0.5,2.7-1.5c0.6-1,1.1-2.5,1.5-4.4c0.4-1.9,0.5-3.3,0.5-4
			c0-1.2-0.3-2.1-0.8-2.7c-0.5-0.6-1.3-0.9-2.2-0.9c-1.7,0-2.9,1.2-3.6,3.6s-1,4.5-1,6.4C946.7,98.4,947.7,99.6,949.6,99.6z"/>
		<path id="path4272"  d="M980.8,98.8l-0.9,5.5h-15.8l3.9-23.1h7l-2.9,17.5H980.8L980.8,98.8z"/>
		<path id="path4274"  d="M984.2,104.4l3.9-23.1h7.7c1.9,0,3.4,0.1,4.5,0.4
			c1.2,0.3,2.3,0.9,3.4,1.8c1.1,0.9,1.9,2,2.4,3.4c0.6,1.4,0.8,3,0.8,4.7c0,2.3-0.4,4.3-1.3,6.1c-0.8,1.8-2,3.3-3.4,4.3
			c-1.4,1.1-2.7,1.7-4.1,1.9c-1.3,0.2-3.2,0.3-5.6,0.3H984.2z M991.9,99.2h1.6c1.6,0,2.8-0.2,3.6-0.7c0.8-0.5,1.4-1.3,2-2.6
			c0.6-1.3,0.8-2.8,0.8-4.5c0-3.4-1.3-5.1-3.9-5.1h-2L991.9,99.2z"/>
	</g>
	<g id="flowRoot4212">
	</g>
	<g id="flowRoot3442" transform="translate(-181.24942,9.5983014)">
	</g>
	<g id="flowRoot4290-5-5-9" transform="translate(-21.250239,84.734043)">
		<path id="path4318"  class="st0" d="M557.5,29.5l-0.2,1.3h-4.2l1-5.8h4.1l-0.2,1.3h-2.5l-0.1,0.9
			h2.1l-0.2,1.2h-2.1l-0.2,1L557.5,29.5L557.5,29.5z"/>
		<path id="path4320"  class="st0" d="M564.5,25l-2.1,2.8l1.4,3H562l-0.6-1.5
			c-0.1-0.2-0.2-0.4-0.2-0.4c0,0-0.1,0.1-0.2,0.2c0,0,0,0.1-0.1,0.1l-1.1,1.5h-1.6l2.3-3.1l-1.3-2.7h1.8l0.5,1.2
			c0,0.1,0.1,0.2,0.2,0.4L563,25L564.5,25L564.5,25z"/>
		<path id="path4322"  class="st0" d="M568.6,28.6l1.5,0.2c-0.2,0.6-0.5,1.1-0.9,1.5
			c-0.4,0.4-1,0.6-1.7,0.6c-0.7,0-1.3-0.2-1.7-0.7c-0.4-0.5-0.6-1.1-0.6-1.9c0-0.9,0.3-1.7,0.8-2.4c0.5-0.7,1.2-1,2.2-1
			c0.7,0,1.2,0.2,1.6,0.6c0.4,0.4,0.6,1,0.6,1.6l-1.6,0.1c0-0.4-0.1-0.6-0.2-0.8s-0.3-0.3-0.5-0.3c-0.4,0-0.7,0.3-0.9,1
			c-0.2,0.6-0.2,1.1-0.2,1.5c0,0.6,0.2,0.9,0.7,0.9c0.2,0,0.4-0.1,0.6-0.2S568.5,28.9,568.6,28.6z"/>
		<path id="path4324"  class="st0" d="M575.9,29.5l-0.2,1.3h-4.2l1-5.8h4.1l-0.2,1.3h-2.5l-0.1,0.9
			h2.1l-0.2,1.2h-2.1l-0.2,1L575.9,29.5L575.9,29.5z"/>
		<path id="path4326"  class="st0" d="M581.5,29.4l-0.2,1.4h-3.9l1-5.8h1.7l-0.7,4.4L581.5,29.4
			L581.5,29.4z"/>
		<path id="path4328"  class="st0" d="M587.1,29.4l-0.2,1.4h-3.9l1-5.8h1.7l-0.7,4.4L587.1,29.4
			L587.1,29.4z"/>
		<path id="path4330"  class="st0" d="M592.9,29.5l-0.2,1.3h-4.2l1-5.8h4.1l-0.2,1.3h-2.5l-0.1,0.9
			h2.1l-0.2,1.2h-2.1l-0.2,1L592.9,29.5L592.9,29.5z"/>
		<path id="path4332" class="st0" d="M600.2,25l-1,5.8H598l-1.1-2.2c-0.3-0.6-0.5-1.1-0.6-1.4
			c0,0.1,0,0.2,0,0.2c0,0.2,0,0.4-0.1,0.6l-0.5,2.8h-1.4l1-5.8h1.6l0.6,1.3c0.4,0.9,0.7,1.6,0.9,2c0-0.1,0-0.2,0-0.3
			c0-0.2,0-0.5,0.1-0.9l0.4-2.2H600.2L600.2,25z"/>
		<path id="path4334" class="st0" d="M604.9,28.6l1.5,0.2c-0.2,0.6-0.5,1.1-0.9,1.5
			c-0.4,0.4-1,0.6-1.7,0.6c-0.7,0-1.3-0.2-1.7-0.7c-0.4-0.5-0.6-1.1-0.6-1.9c0-0.9,0.3-1.7,0.8-2.4c0.5-0.7,1.2-1,2.2-1
			c0.7,0,1.2,0.2,1.6,0.6c0.4,0.4,0.6,1,0.6,1.6l-1.6,0.1c0-0.4-0.1-0.6-0.2-0.8s-0.3-0.3-0.5-0.3c-0.4,0-0.7,0.3-0.9,1
			c-0.2,0.6-0.2,1.1-0.2,1.5c0,0.6,0.2,0.9,0.7,0.9c0.2,0,0.4-0.1,0.6-0.2S604.7,28.9,604.9,28.6z"/>
		<path id="path4336"  class="st0" d="M612.1,29.5l-0.2,1.3h-4.2l1-5.8h4.1l-0.2,1.3h-2.5l-0.1,0.9
			h2.1l-0.2,1.2h-2.1l-0.2,1L612.1,29.5L612.1,29.5z"/>
		<path id="path4338"  class="st0" d="M619.3,25l-1,5.8h-1.6l1-5.8H619.3z"/>
		<path id="path4340"  class="st0" d="M626.2,25l-1,5.8H624l-1.1-2.2c-0.3-0.6-0.5-1.1-0.6-1.4
			c0,0.1,0,0.2,0,0.2c0,0.2,0,0.4-0.1,0.6l-0.5,2.8h-1.4l1-5.8h1.6l0.6,1.3c0.4,0.9,0.7,1.6,0.9,2c0-0.1,0-0.2,0-0.3
			c0-0.2,0-0.5,0.1-0.9l0.4-2.2H626.2L626.2,25z"/>
		<path id="path4342"  class="st0" d="M632.4,28.7l-0.4,2.1h-1.7l1-5.8h1.9c0.4,0,0.8,0,1,0.1
			c0.2,0,0.4,0.1,0.6,0.3c0.2,0.1,0.4,0.3,0.5,0.6c0.1,0.2,0.2,0.5,0.2,0.8c0,0.5-0.2,1-0.5,1.4c-0.4,0.4-0.9,0.6-1.5,0.6
			L632.4,28.7L632.4,28.7z M632.6,27.5h0.4c0.6,0,0.9-0.2,0.9-0.6c0-0.4-0.3-0.6-0.8-0.6h-0.4L632.6,27.5L632.6,27.5z"/>
		<path id="path4344"  class="st0" d="M640.7,29.4l-0.2,1.4h-3.9l1-5.8h1.7l-0.7,4.4L640.7,29.4
			L640.7,29.4z"/>
		<path id="path4346"  class="st0" d="M645.1,29.6h-1.5l-0.5,1.2h-1.4l2.7-5.8h1.8l0.9,5.8h-1.7
			L645.1,29.6z M645,28.4l-0.2-1.7l-0.8,1.7H645z"/>
		<path id="path4348" class="st0" d="M653.7,26.4l-1.5,0.4c0-0.2-0.1-0.3-0.3-0.4
			c-0.2-0.1-0.4-0.1-0.6-0.1c-0.4,0-0.6,0.1-0.6,0.4c0,0.1,0,0.2,0.1,0.2c0.1,0.1,0.2,0.1,0.5,0.2l0.9,0.3c0.2,0.1,0.5,0.2,0.7,0.4
			c0.2,0.2,0.4,0.3,0.4,0.5c0.1,0.2,0.1,0.4,0.1,0.6c0,0.6-0.2,1.1-0.7,1.4c-0.5,0.4-1.1,0.6-1.8,0.6c-0.7,0-1.2-0.1-1.7-0.4
			c-0.5-0.3-0.8-0.7-1-1.2l1.7-0.3c0.1,0.4,0.5,0.6,1.1,0.6c0.2,0,0.4,0,0.5-0.1c0.1-0.1,0.2-0.2,0.2-0.3c0-0.1,0-0.1-0.1-0.2
			c0-0.1-0.1-0.1-0.1-0.1c0,0-0.3-0.1-0.7-0.3c-0.5-0.2-0.9-0.3-1.1-0.5c-0.2-0.1-0.4-0.3-0.5-0.5c-0.1-0.2-0.2-0.5-0.2-0.8
			c0-0.5,0.2-1,0.6-1.3c0.4-0.4,1-0.5,1.8-0.5c0.6,0,1.1,0.1,1.6,0.4C653.3,25.6,653.6,25.9,653.7,26.4z"/>
		<path id="path4350"  class="st0" d="M658,26.3l-0.7,4.5h-1.7l0.7-4.5h-1.2l0.2-1.3h4.2l-0.2,1.3
			H658L658,26.3z"/>
		<path id="path4352"  class="st0" d="M662.7,25l-1,5.8h-1.6l1-5.8H662.7z"/>
		<path id="path4354" class="st0" d="M667.3,28.6l1.5,0.2c-0.2,0.6-0.5,1.1-0.9,1.5
			c-0.4,0.4-1,0.6-1.7,0.6c-0.7,0-1.3-0.2-1.7-0.7c-0.4-0.5-0.6-1.1-0.6-1.9c0-0.9,0.3-1.7,0.8-2.4c0.5-0.7,1.2-1,2.2-1
			c0.7,0,1.2,0.2,1.6,0.6c0.4,0.4,0.6,1,0.6,1.6l-1.6,0.1c0-0.4-0.1-0.6-0.2-0.8c-0.1-0.2-0.3-0.3-0.5-0.3c-0.4,0-0.7,0.3-0.9,1
			c-0.2,0.6-0.2,1.1-0.2,1.5c0,0.6,0.2,0.9,0.7,0.9c0.2,0,0.4-0.1,0.6-0.2C667.1,29.2,667.2,28.9,667.3,28.6z"/>
		<path id="path4356"  class="st0" d="M675.4,26.4l-1.5,0.4c0-0.2-0.1-0.3-0.3-0.4
			c-0.2-0.1-0.4-0.1-0.6-0.1c-0.4,0-0.6,0.1-0.6,0.4c0,0.1,0,0.2,0.1,0.2c0.1,0.1,0.2,0.1,0.5,0.2l0.9,0.3c0.2,0.1,0.5,0.2,0.7,0.4
			c0.2,0.2,0.4,0.3,0.4,0.5c0.1,0.2,0.1,0.4,0.1,0.6c0,0.6-0.2,1.1-0.7,1.4c-0.5,0.4-1.1,0.6-1.8,0.6c-0.7,0-1.2-0.1-1.7-0.4
			c-0.5-0.3-0.8-0.7-1-1.2l1.7-0.3c0.1,0.4,0.5,0.6,1.1,0.6c0.2,0,0.4,0,0.5-0.1c0.1-0.1,0.2-0.2,0.2-0.3c0-0.1,0-0.1-0.1-0.2
			c0-0.1-0.1-0.1-0.1-0.1c0,0-0.3-0.1-0.7-0.3c-0.5-0.2-0.9-0.3-1.1-0.5c-0.2-0.1-0.4-0.3-0.5-0.5c-0.1-0.2-0.2-0.5-0.2-0.8
			c0-0.5,0.2-1,0.6-1.3c0.4-0.4,1-0.5,1.8-0.5c0.6,0,1.1,0.1,1.6,0.4C675,25.6,675.3,25.9,675.4,26.4L675.4,26.4z"/>
	</g>
	<g id="flowRoot4249">
	</g>
</g>
</svg>
